#format: frame checksums
#version: 1
#hash: MD5
#tb 0: 1/25
#stream#, dts,        pts, duration,     size, hash
0,         -1,          0,        1,    17232, 4ef371059eb13f9aaec7b171483d60c4
0,          0,          1,        1,     3647, 65ed9b25158566eeda049bd6b27ad1e4
0,          1,          2,        1,     4327, 38a4e78e94e84c84df5541c57b45284a
0,          2,          3,        1,     3767, ea9859478764d999c28b93f0565ae66b
0,          3,          4,        1,     4952, 5d1305d8e652062c3174d7f955b42ee0
0,          4,          5,        1,     3987, 76a686d072f6ddf23266f156202a35bc
0,          5,          6,        1,     4543, 7970bcd75147da178ef816faa130df21
0,          6,          7,        1,     3733, 0755854f3fcc86c5ffd0ecd976014e5b
0,          7,          8,        1,     4784, 4feb830406f4148c8191dfc24111b7c6
0,          8,          9,        1,     3785, 103f39a1b39b94285b983ab436a194dc
0,          9,         10,        1,     4263, cfdc06103454fa1f067e390319b58ffc
0,         10,         11,        1,     4855, 0518b0bd000a9853481ef6958d76a02f
0,         11,         12,        1,    17445, a5fa1711bbb42ff70a6137e2a6b8755e
0,         12,         13,        1,     4301, b07e32b0c4046d48a1887b9acba2189e
0,         13,         14,        1,     5158, 551a2acd359f0e61d78ca9a930e5475a
0,         14,         15,        1,     5485, 7f4a59e0cd3591512786ce35170d2b38
0,         15,         16,        1,     5746, de38493f03bd921b92c32e56533dff74
0,         16,         17,        1,     5418, 0b6f1ae911432e5d094a51d8f45ca000
0,         17,         18,        1,     5846, 2f274205fb3287423dfc87814ca8acd8
0,         18,         19,        1,     5587, fe62081ea8636ccefecbb4de0c55d20a
0,         19,         20,        1,     5752, a8ca7efed351f8cee5efac08baf4800d
0,         20,         21,        1,     6782, 2111fc0ab3e0231596656caaafb5eb26
0,         21,         22,        1,     6552, 03705ab2e86930bf87c6edd5591478c2
0,         22,         23,        1,     6501, 30756b31178fb838c428e877a982e221
0,         23,         24,        1,    17144, 0069768e78931af4e4420c917a7d7567
0,         24,         25,        1,     5015, 344526716cdb3166f133e449a687a5d3
0,         25,         26,        1,     5551, 6b997858111e9dacf57062ffd7f01798
0,         26,         27,        1,     5398, 80838f495f697dc6267ed4c3b2bad470
0,         27,         28,        1,     5711, 36d169a67f3a1041721ad50554cea03c
0,         28,         29,        1,     5133, 2440cf65a9c1cb9ef84850508012fab7
0,         29,         30,        1,     5477, dd20e0c30a610b36b92cf46834e55f36
0,         30,         31,        1,     5442, e65602cb04694a35171a749bf4119cb4
0,         31,         32,        1,     5647, f16e6206476399bfa7f21cae22a8d53a
0,         32,         33,        1,     5304, c77aace1789402df4f20f2e29c71464a
0,         33,         34,        1,     6051, a662284ed0e93e4d1ffd9f9cf7655e34
0,         34,         35,        1,     6195, c0d94b68b09279051bd3bd0f3f69743a
0,         35,         36,        1,    16421, 76a45ab1d2220ce9bb0239da71cb4ae4
0,         36,         37,        1,     5714, 28a2e5656ca5db193f8388fd4cabf963
0,         37,         38,        1,     5977, f03e9dcaddedce9c1ec17362e40af29a
0,         38,         39,        1,     5832, 02c1c3c89bd01816a84af66732734e61
0,         39,         40,        1,     5477, 7eedf53cd95ae662d8123db5d0444410
0,         40,         41,        1,     5135, 9898080aa35d207581c559736784a88c
0,         41,         42,        1,     5778, 650a542e9451de793cf2b364a0923567
0,         42,         43,        1,     5657, 7437f8f0d5cc54acee92eecd28ffa13d
0,         43,         44,        1,     5671, 30c2f22c94baf61bc79850c6c99e67d2
0,         44,         45,        1,     6851, da2ff320bf6b31a4a3b06c938ae3cbd0
0,         45,         46,        1,     6596, 0ac617ceaf1db65539007b8a758ed158
0,         46,         47,        1,     6710, a0dc04bc6a2f43cf88f816e27f34498c
0,         47,         48,        1,    16926, f5a8881431c5f265570f0e61182c0376
0,         48,         49,        1,     4996, 30195ac570869112bbd01ce1e4cfd42f
0,         49,         50,        1,     5620, 98125f721484534bd2dd80e95fb04708
0,         50,         51,        1,     5655, 80a43a75a06ebed4a32512020749c658
0,         51,         52,        1,     5808, 7dc059d9921d969b499f4e5dd67adfa6
0,         52,         53,        1,     5332, 5a81531f380d3b8f3eaa06e975c72019
0,         53,         54,        1,     5836, 71fd466c3e4851e7d08db3f5a2610d9e
0,         54,         55,        1,     5730, ef9040f5bea1c3331fbb2e545665c9af
0,         55,         56,        1,     6285, e756df54f603e203c09cb8a0dfe7e4d1
0,         56,         57,        1,     5534, 50c3ce526c481787255805ae26bfdec4
0,         57,         58,        1,     5950, 38a9566580bc52ca9c75ee37b862eff3
0,         58,         59,        1,     5344, 5d4e27b98736cd3618ca372eba1825fa
0,         59,         60,        1,    15772, 8ffc779e0d856c05506dac9854956c04
0,         60,         61,        1,     5833, 410a6000eaf8e919142a94ea5876ecdc
0,         61,         62,        1,     5918, 96bcb0b79085cb377aea839335dc0252
0,         62,         63,        1,     5884, 70b0c5f24f385853695a9df29fb7d361
0,         63,         64,        1,     5734, 39e3343e3340ab32cb61c692c443d1d3
0,         64,         65,        1,     5506, df75ddfaa526f029164506831e954cd7
0,         65,         66,        1,     5762, e72bfb9c90c41d825d625a6e62164270
0,         66,         67,        1,     5599, ac55e5d91584e6b8b03e3d9face3e980
0,         67,         68,        1,     5505, a012490323f59eacee93fac98115cd2d
0,         68,         69,        1,     6610, 6a82647fc6b0581199fa414a323f4734
0,         69,         70,        1,     6629, 9e9fe39baf44905229ef6d4184fcb356
0,         70,         71,        1,     6257, c9dfee84c93f4fe45fbc0552f5a826da
0,         71,         72,        1,    15776, e37283d336cacc0d36c3a2b52c66ab92
0,         72,         73,        1,     5025, 38657be0bc8f169e7844b1125f116124
0,         73,         74,        1,     5389, e4d71cea7eaa1c047412bf8d90fa6f76
0,         74,         75,        1,     5449, 3c1ef7a2376ff0dc7af4c6dcfdb84c56
0,         75,         76,        1,     5487, d2184f9293334671912c36a2d5815454
0,         76,         77,        1,     4958, f21fe57c23ceffd23a3dac843bd6d7f8
0,         77,         78,        1,     5299, a1f52a071411b0541606678e881947a2
0,         78,         79,        1,     5668, 66bb3f949fbe16a8e2677a2d8b4cb123
0,         79,         80,        1,     5417, 0f2802c7cd679999017c8cb21070e287
0,         80,         81,        1,     5179, 1580e262e5dac74f30b00c5638e827c9
0,         81,         82,        1,     5789, 13be0785dc5b3f8a8583a5c43fa3e581
0,         82,         83,        1,     5443, fa9d35791da5a128bc8ce4d24270e35a
0,         83,         84,        1,    14818, d1f2f384fa83606256c784558c676d79
0,         84,         85,        1,     5395, b4ada77124655b66b77eecc1dc2c7d46
0,         85,         86,        1,     5459, 1f4b5d37334552902a0bb58ff7b3b694
0,         86,         87,        1,     5539, f78c33423036de5c9ebd4525fdc9a36d
0,         87,         88,        1,     5326, 60f4d9158b02e01c4d7a5e958bf14675
0,         88,         89,        1,     5196, f174cabcfd385e3e487e86ec62f2818a
0,         89,         90,        1,     5442, f1cbf76fd2eb659d8c8f6e31c9ce8ab7
0,         90,         91,        1,     5251, ce7b216eedc26ceb6c42d6a009df83cf
0,         91,         92,        1,     5688, 1f3967dca2faf14d2c127145cf261d2f
0,         92,         93,        1,     6811, 0ea73550b40c4f64ae54b705080116b1
0,         93,         94,        1,     6243, b435981339eece79c80b72d4eac7ae8a
0,         94,         95,        1,     6477, d985226c1f0dfa5b8bbfc08635061b19
0,         95,         96,        1,    16118, 3afcd00742cf99e785bb2c4ffc8d76a6
0,         96,         97,        1,     5088, 359f03814165a8693fcb040eea4fd51f
0,         97,         98,        1,     5786, 1e507e93a27c05c69c416fe9573481d5
0,         98,         99,        1,     5548, a18332de7f6a08faa1f6eacbcf08ca18
0,         99,        100,        1,     6069, 32b99002ffab0ef7ca1fa6947b85dcb9
0,        100,        101,        1,     5713, 40cb1c4cc1f43f8512cf63217cfeea78
0,        101,        102,        1,     5934, 6dbbff8d80a981eecfe649c4bfd8bcb9
0,        102,        103,        1,     5550, 1bf80bbe86dfda3f222ec7cdd3246f1e
0,        103,        104,        1,     5885, b128e0337c839a95f702dc894520a718
0,        104,        105,        1,     6231, f2a2bfe1f87906b4e9956ab0c642108e
0,        105,        106,        1,     6507, f332af17fc3ebc6a155f4972bb03d94d
0,        106,        107,        1,     6096, bdfccb85f6bc9c032f5b53b9dab14be7
0,        107,        108,        1,    16347, 973a02a4c980c509ad4ac2697b8e80c6
0,        108,        109,        1,     5933, 673c4128aa4c06471848e6dae01061d6
0,        109,        110,        1,     6555, d3c54164c14159af0f42eb041c8c8822
0,        110,        111,        1,     2994, 298ca16dce485b1a497dcb5009ac9422
0,        111,        112,        1,     2126, e6c72c04984e578a96238062ee096f2b
0,        112,        113,        1,     1918, a42060c2af0ac6d928651bacf08ae7c9
0,        113,        114,        1,     1450, 15c80a6c34193ce974c4fcb1fc872117
0,        114,        115,        1,     2126, 8116b78374e3a6ad2a7c2e48333cdfe1
0,        115,        116,        1,     1872, 83105cb7ce133c0e46a264d454bb1f81
0,        116,        117,        1,     4384, 03fd645b0600e98f26e54b778ec17fb0
0,        117,        118,        1,     3858, ce597e80e09775a808dba94da917cc64
0,        118,        119,        1,     4393, d5b0bbcdeb77e78e0b511762e98d102b
0,        119,        120,        1,    17618, 6407f1aec74b438f365b6436eab6bdbc
0,        120,        121,        1,     2036, 01da820879efcaf7fa192eafa1fb87c6
0,        121,        122,        1,     1820, ee050a49c47504fa8e0e6add2b8a3a51
0,        122,        123,        1,     1522, 3e11e1f4ff5f54dc792b2c76a234a748
0,        123,        124,        1,     1239, 3ba1af53ccfbcbef378a1b2f68b9c7b2
0,        124,        125,        1,     1441, 612fed10a5ee5d06e40d030e0ba11a2b
